HIERARCHY
ROOT SpineBase
{
  OFFSET 0.000000 0.000000 0.000000
  CHANNELS 6 Xposition Yposition Zposition Zrotation Xrotation Yrotation
  JOINT SpineMid
  {
    OFFSET 0.000000 31.840385 0.000000
    CHANNELS 3 Zrotation Xrotation Yrotation
    JOINT SpineShoulder
    {
      OFFSET 0.103654 23.514480 -0.794718
      CHANNELS 3 Zrotation Xrotation Yrotation
      JOINT Neck
      {
        OFFSET 0.117002 7.782402 -0.620533
        CHANNELS 3 Zrotation Xrotation Yrotation
        JOINT Head
        {
          OFFSET -6.809583 11.169918 1.498210
          CHANNELS 3 Zrotation Xrotation Yrotation
          End Site
          {
            OFFSET 0 0 0
          }
        }
      }
      JOINT ShoulderLeft
      {
        OFFSET -10.310800 -2.598141 13.138698
        CHANNELS 3 Zrotation Xrotation Yrotation
        JOINT ElbowLeft
        {
          OFFSET -2.315066 -28.094908 0.546650
          CHANNELS 3 Zrotation Xrotation Yrotation
          JOINT WristLeft
          {
            OFFSET -0.955360 -25.521938 -11.497664
            CHANNELS 3 Zrotation Xrotation Yrotation
            JOINT HandLeft
            {
              OFFSET 1.746423 -5.731565 -0.468196
              CHANNELS 3 Zrotation Xrotation Yrotation
              JOINT HandTipLeft
              {
                OFFSET 2.385884 -4.144988 -1.670333
                CHANNELS 3 Zrotation Xrotation Yrotation
                End Site
                {
                  OFFSET 0 0 0
                }
              }
              JOINT ThumbLeft
              {
                OFFSET -2.503920 -1.182471 0.316560
                CHANNELS 3 Zrotation Xrotation Yrotation
                End Site
                {
                  OFFSET 0 0 0
                }
              }
            }
          }
        }
      }
      JOINT ShoulderRight
      {
        OFFSET 10.004144 -3.718790 -12.283773
        CHANNELS 3 Zrotation Xrotation Yrotation
        JOINT ElbowRight
        {
          OFFSET 7.604649 -24.628974 -4.394756
          CHANNELS 3 Zrotation Xrotation Yrotation
          JOINT WristRight
          {
            OFFSET -6.209655 -23.294168 -2.880233
            CHANNELS 3 Zrotation Xrotation Yrotation
            JOINT HandRight
            {
              OFFSET -3.235864 -7.556778 -0.648562
              CHANNELS 3 Zrotation Xrotation Yrotation
              JOINT HandTipRight
              {
                OFFSET -3.889150 -7.532763 -1.280503
                CHANNELS 3 Zrotation Xrotation Yrotation
                End Site
                {
                  OFFSET 0 0 0
                }
              }
              JOINT ThumbRight
              {
                OFFSET -2.983096 2.706033 0.185769
                CHANNELS 3 Zrotation Xrotation Yrotation
                End Site
                {
                  OFFSET 0 0 0
                }
              }
            }
          }
        }
      }
    }
  }
  JOINT HipLeft
  {
    OFFSET -4.283956 0.198677 1.113419
    CHANNELS 3 Zrotation Xrotation Yrotation
    JOINT KneeLeft
    {
      OFFSET 5.110176 -31.039373 -1.021727
      CHANNELS 3 Zrotation Xrotation Yrotation
      JOINT AnkleLeft
      {
        OFFSET 15.724040 -38.581212 6.043550
        CHANNELS 3 Zrotation Xrotation Yrotation
        JOINT FootLeft
        {
          OFFSET -3.759077 -7.429783 -0.971473
          CHANNELS 3 Zrotation Xrotation Yrotation
          End Site
          {
            OFFSET 0 0 0
          }
        }
      }
    }
  }
  JOINT HipRight
  {
    OFFSET 4.898409 1.756338 -8.362203
    CHANNELS 3 Zrotation Xrotation Yrotation
    JOINT KneeRight
    {
      OFFSET 8.942080 -34.676339 0.547486
      CHANNELS 3 Zrotation Xrotation Yrotation
      JOINT AnkleRight
      {
        OFFSET 7.997440 -34.591256 8.272330
        CHANNELS 3 Zrotation Xrotation Yrotation
        JOINT FootRight
        {
          OFFSET -3.532047 -7.823731 -2.860827
          CHANNELS 3 Zrotation Xrotation Yrotation
          End Site
          {
            OFFSET 0 0 0
          }
        }
      }
    }
  }
}
MOTION
Frames: 8
Frame Time: 0.033333
-33.015067 77.986026 337.937555 -0.000000 0.000000 45.900476 -0.000000 0.000000 -45.900476 -0.000000 0.000000 0.000000 -0.000000 0.000000 0.000000 0.000000 0.000000 0.000000 -0.000000 0.000000 0.000000 -0.000000 0.000000 0.000000 -0.000000 0.000000 0.000000 -0.000000 0.000000 0.000000 0.000000 0.000000 0.000000 0.000000 0.000000 0.000000 -0.000000 0.000000 0.000000 -0.000000 0.000000 0.000000 -0.000000 0.000000 0.000000 -0.000000 0.000000 0.000000 0.000000 0.000000 0.000000 0.000000 0.000000 0.000000 -0.000000 0.000000 -45.900476 -0.000000 0.000000 0.000000 -0.000000 0.000000 0.000000 0.000000 0.000000 0.000000 -0.000000 0.000000 -45.900476 -0.000000 0.000000 0.000000 -0.000000 0.000000 0.000000 0.000000 0.000000 0.000000
-33.024574 77.931795 337.896214 -0.116833 0.072074 45.902350 0.029542 -0.134059 -45.902242 -0.000000 0.000000 0.000000 -0.000000 0.000000 0.000000 0.000000 0.000000 0.000000 -0.000000 0.000000 0.000000 -0.323921 -2.762799 0.244182 -8.220014 2.990742 0.954944 -2.600748 -6.284036 -0.419813 0.000000 0.000000 0.000000 0.000000 0.000000 0.000000 -0.000000 0.000000 0.000000 -0.000000 0.000000 0.000000 1.254165 1.324424 -0.691840 -3.112185 -0.887436 0.699313 0.000000 0.000000 0.000000 0.000000 0.000000 0.000000 0.029542 -0.134059 -45.902242 -0.000000 0.000000 0.000000 -0.375494 -0.772928 0.437290 0.000000 0.000000 0.000000 0.029542 -0.134059 -45.902242 -0.000000 0.000000 0.000000 -0.000000 0.000000 0.000000 0.000000 0.000000 0.000000
-33.029070 77.881184 337.864505 -0.218535 0.130401 45.901653 0.058431 -0.247685 -45.901278 -0.000000 0.000000 0.000000 -0.000000 0.000000 0.000000 0.000000 0.000000 0.000000 -0.000000 0.000000 0.000000 -0.554460 -5.206392 0.428295 -15.742761 5.728185 2.678588 -3.549994 -10.928340 -1.610814 0.000000 0.000000 0.000000 0.000000 0.000000 0.000000 -0.000000 0.000000 0.000000 -0.000000 0.000000 0.000000 2.375034 2.311775 -1.250733 -5.793307 -1.500140 1.143900 0.000000 0.000000 0.000000 0.000000 0.000000 0.000000 0.058431 -0.247685 -45.901278 -0.000000 0.000000 0.000000 -0.571972 -1.301619 0.726104 0.000000 0.000000 0.000000 0.058431 -0.247685 -45.901278 -0.000000 0.000000 0.000000 -0.000000 0.000000 0.000000 0.000000 0.000000 0.000000
-33.028555 77.834192 337.842428 -0.305166 0.175030 45.898215 0.086688 -0.340950 -45.897491 -0.000000 0.000000 0.000000 0.216751 0.813425 0.464310 0.000000 0.000000 0.000000 -0.000000 0.000000 0.000000 -0.686655 -7.255142 0.553432 -21.581622 8.144085 4.729042 -2.934565 -13.654938 -2.714110 0.000000 0.000000 0.000000 0.000000 0.000000 0.000000 -0.000000 0.000000 0.000000 0.108426 0.887247 -0.250592 3.200458 2.050363 -1.337837 -8.017221 -1.758832 1.368181 0.000000 0.000000 0.000000 0.000000 0.000000 0.000000 0.086688 -0.340950 -45.897491 -0.000000 0.000000 0.000000 -0.590698 -1.579258 0.867451 0.000000 0.000000 0.000000 0.086688 -0.340950 -45.897491 -0.000000 0.000000 0.000000 -0.000000 0.000000 0.000000 0.000000 0.000000 0.000000
-33.023028 77.790818 337.829983 -0.376781 0.206006 45.891875 0.114331 -0.413920 -45.890785 -0.000000 0.000000 0.000000 0.277029 0.991302 0.563306 0.000000 0.000000 0.000000 -0.000000 0.000000 0.000000 -0.718515 -8.852372 0.621634 -25.045856 10.341000 6.612731 -1.445339 -14.780472 -3.202633 0.000000 0.000000 0.000000 0.000000 0.000000 0.000000 -0.545797 0.596806 0.284665 0.762774 0.432891 -0.580543 3.822965 2.114458 -1.447727 -9.759170 -1.601716 1.404201 0.000000 0.000000 0.000000 0.000000 0.000000 0.000000 0.114331 -0.413920 -45.890785 -0.000000 0.000000 0.000000 -0.432504 -1.602514 0.861257 0.000000 0.000000 0.000000 0.114331 -0.413920 -45.890785 -0.000000 0.000000 0.000000 -0.000000 0.000000 0.000000 0.000000 0.000000 0.000000
-33.012491 77.751064 337.827170 -0.433429 0.223368 45.882480 0.141372 -0.466656 -45.881059 -0.000000 0.000000 0.000000 0.332057 1.123629 0.635268 0.000000 0.000000 0.000000 -0.000000 0.000000 0.000000 -0.650925 -9.962243 0.635168 -25.782927 12.476107 7.916533 0.189415 -14.633305 -2.963017 0.000000 0.000000 0.000000 0.000000 0.000000 0.000000 -0.594777 0.666643 0.315610 0.952370 0.441130 -0.648462 4.174525 1.815387 -1.349081 -10.995904 -0.985959 1.275943 0.000000 0.000000 0.000000 0.000000 0.000000 0.000000 0.141372 -0.466656 -45.881059 -0.000000 0.000000 0.000000 -0.097687 -1.371359 0.706264 0.000000 0.000000 0.000000 0.141372 -0.466656 -45.881059 -0.000000 0.000000 0.000000 -0.000000 0.000000 0.000000 0.000000 0.000000 0.000000
-32.990733 77.690696 337.855544 -0.474827 0.209089 45.923641 0.180094 -0.486564 -45.922010 -0.000000 0.000000 0.000000 0.386003 1.224018 0.687929 0.000000 0.000000 0.000000 -0.000000 0.000000 0.000000 -0.343356 -10.303009 0.531984 -19.663326 16.417760 7.921993 0.884616 -12.143142 -1.351294 0.000000 0.000000 0.000000 0.000000 0.000000 0.000000 -0.618084 0.746406 0.344960 1.217999 0.313605 -0.693156 4.444127 0.802604 -0.879205 -11.598611 -0.157313 1.159752 0.000000 0.000000 0.000000 0.000000 0.000000 0.000000 0.180094 -0.486564 -45.922010 -0.000000 0.000000 0.000000 0.545417 -0.891215 0.385160 0.000000 0.000000 0.000000 0.180094 -0.486564 -45.922010 -0.000000 0.000000 0.000000 -0.000000 0.000000 0.000000 0.000000 0.000000 0.000000
-32.962043 77.658484 337.852703 -0.492002 0.213677 45.968151 0.188355 -0.502241 -45.966408 -0.000000 0.000000 0.000000 0.405856 1.249534 0.700383 0.000000 0.000000 0.000000 -0.000000 0.000000 0.000000 0.021664 -9.659636 0.368548 -13.395971 14.810621 5.293831 1.014033 -6.776173 0.733410 0.000000 0.000000 0.000000 0.000000 0.000000 0.000000 -0.577775 0.774547 0.346283 1.377274 0.291326 -0.720309 3.924644 -0.555382 -0.180750 -13.254391 2.207431 0.707977 0.000000 0.000000 0.000000 0.000000 0.000000 0.000000 0.188355 -0.502241 -45.966408 -0.000000 0.000000 0.000000 1.704691 0.223231 -0.341659 0.000000 0.000000 0.000000 0.188355 -0.502241 -45.966408 -0.000000 0.000000 0.000000 -0.000000 0.000000 0.000000 0.000000 0.000000 0.000000
